# Blender v2.92.0 OBJ File: ''
# www.blender.org
mtllib plane.mtl
o Cube_Cube.001
v -4.000000 -0.251392 4.000000
v -4.000000 0.251392 4.000000
v -4.000000 -0.251392 -4.000000
v -4.000000 0.251392 -4.000000
v 4.000000 -0.251392 4.000000
v 4.000000 0.251392 4.000000
v 4.000000 -0.251392 -4.000000
v 4.000000 0.251392 -4.000000
vt 0.499998 0.562848
vt 0.000000 0.531424
vt 0.499998 0.531425
vt 0.000000 0.562849
vt 0.499998 0.594273
vt 0.000000 0.594273
vt 0.000000 0.500000
vt 0.499998 0.531424
vt 0.000000 0.531424
vt 0.000000 0.594273
vt 0.499998 0.625697
vt 0.000000 0.625697
vt 0.500000 0.000000
vt 0.000000 0.500000
vt 0.000000 0.000000
vt 0.500000 0.000000
vt 1.000000 0.500000
vt 0.500000 0.500000
vt 0.499998 0.562849
vt 0.499998 0.500000
vt 0.499998 0.594273
vt 0.500000 0.500000
vt 1.000000 0.000000
vn -1.0000 0.0000 0.0000
vn 0.0000 0.0000 -1.0000
vn 1.0000 0.0000 0.0000
vn 0.0000 0.0000 1.0000
vn 0.0000 -1.0000 0.0000
vn 0.0000 1.0000 0.0000
usemtl None
s off
f 2/1/1 3/2/1 1/3/1
f 4/4/2 7/5/2 3/6/2
f 8/7/3 5/8/3 7/9/3
f 6/10/4 1/11/4 5/12/4
f 7/13/5 1/14/5 3/15/5
f 4/16/6 6/17/6 8/18/6
f 2/1/1 4/4/1 3/2/1
f 4/4/2 8/19/2 7/5/2
f 8/7/3 6/20/3 5/8/3
f 6/10/4 2/21/4 1/11/4
f 7/13/5 5/22/5 1/14/5
f 4/16/6 2/23/6 6/17/6
